<?xml version="1.0" encoding="utf-8"?>
<!-- Generator: Adobe Illustrator 19.0.0, SVG Export Plug-In . SVG Version: 6.00 Build 0)  -->
<svg version="1.1" id="Layer_1" xmlns="http://www.w3.org/2000/svg" xmlns:xlink="http://www.w3.org/1999/xlink" x="0px" y="0px"
	 viewBox="-279 402.9 36 36" style="enable-background:new -279 402.9 36 36;" xml:space="preserve">
<style type="text/css">
	.st0{fill:#34495E;}
</style>
<path class="st0" d="M-270.8,410.7c3.4-1.3,6.6-0.9,9.8,0.9c2.7-1.6,5.5-1.9,8.6-1.4c3.8,0.7,6.4,3.2,6.9,6.9c0.2,1.7,0.2,3.6,0,5.3
	c-0.2,1.8-1.8,2.7-3.5,2.6s-3-1.3-3.3-3c-0.1-0.8,0-1.6-0.1-2.4c-0.1-1.5-1.1-2.5-2.5-2.5c-1.4,0-2.4,0.9-2.5,2.4
	c-0.1,0.8,0,1.6-0.1,2.4c-0.2,1.8-1.5,2.9-3.2,3c-1.8,0.1-3.3-0.9-3.6-2.8c-0.2-0.9-0.1-1.8-0.2-2.7c-0.1-1.5-1.1-2.4-2.5-2.4
	s-2.4,1-2.4,2.5c-0.1,2.4,0,4.9,0,7.3c0,0.6,0,1.2-0.1,1.8c-0.3,1.9-1.7,3.2-3.5,3.2c-1.9,0-3.4-1.3-3.5-3.3
	c-0.1-5.1-0.1-10.2,0-15.4C-276.5,410.4-273.8,409.3-270.8,410.7z"/>
</svg>
