<?xml version="1.0" encoding="UTF-8" standalone="no"?>
<!-- Created with Inkscape (http://www.inkscape.org/) -->

<svg
   xmlns:dc="http://purl.org/dc/elements/1.1/"
   xmlns:cc="http://creativecommons.org/ns#"
   xmlns:rdf="http://www.w3.org/1999/02/22-rdf-syntax-ns#"
   xmlns:svg="http://www.w3.org/2000/svg"
   xmlns="http://www.w3.org/2000/svg"
   xmlns:inkscape="http://www.inkscape.org/namespaces/inkscape"
   version="1.1"
   width="14.8"
   height="14.7875"
   id="svg2"
   xml:space="preserve"><metadata
     id="metadata8"><rdf:RDF><cc:Work
         rdf:about=""><dc:format>image/svg+xml</dc:format><dc:type
           rdf:resource="http://purl.org/dc/dcmitype/StillImage" /></cc:Work></rdf:RDF></metadata><defs
     id="defs6" /><g
     transform="matrix(1.25,0,0,-1.25,0,14.7875)"
     id="g10"><g
       transform="scale(0.1,0.1)"
       id="g12"><path
         d="m 59.6172,18.8477 c 22.6992,0 40.9028,18.125 40.9028,40.7421 0,22.6954 -18.2622,41.0352 -40.938,40.9762 C 35.8086,100.488 18.4688,80.8789 18.6797,59.5508 18.8984,36.9141 36.9063,18.8477 59.6172,18.8477 z M 32.6641,118.301 c 9.1211,0 18.2422,0.058 27.3672,-0.02 C 87.4883,118.086 111.316,98.6133 117.102,71.7383 123.801,40.5078 104.855,9.90234 73.8984,1.875 42.8828,-6.17188 10.6719,12.3633 2.27344,43.3594 0.925781,48.2813 0.203125,53.5547 0.125,58.6523 -0.109375,77.7539 0.0703125,96.8555 0.03125,115.977 c 0,1.777 0.503906,2.363 2.32422,2.343 10.09763,-0.078 20.21483,-0.019 30.30863,-0.019"
         inkscape:connector-curvature="0"
         id="path14"
         style="fill:#ffffff;fill-opacity:1;fill-rule:nonzero;stroke:none" /><path
         d="m 59.5234,44.3945 c 8.4532,-0.039 15.1329,6.5625 15.1954,14.961 0.039,8.4375 -6.5821,15.0976 -15.0196,15.1172 -8.4609,0.0195 -15.1758,-6.543 -15.2929,-14.9414 -0.1211,-8.2422 6.7734,-15.1368 15.1171,-15.1368 z m 0.1758,45.0391 c 16.6992,0 30.2539,-13.5156 30.1953,-30.0781 -0.1172,-16.6797 -13.5547,-30.0196 -30.2968,-30 -16.6797,0 -30.2539,13.5156 -30.1914,30.0781 0.0585,16.6602 13.5351,30 30.2929,30"
         inkscape:connector-curvature="0"
         id="path16"
         style="fill:#ffffff;fill-opacity:1;fill-rule:nonzero;stroke:none" /></g></g></svg>