<?xml version="1.0" encoding="UTF-8" standalone="no"?>
<!-- Created with Inkscape (http://www.inkscape.org/) -->

<svg
   xmlns:dc="http://purl.org/dc/elements/1.1/"
   xmlns:cc="http://creativecommons.org/ns#"
   xmlns:rdf="http://www.w3.org/1999/02/22-rdf-syntax-ns#"
   xmlns:svg="http://www.w3.org/2000/svg"
   xmlns="http://www.w3.org/2000/svg"
   xmlns:inkscape="http://www.inkscape.org/namespaces/inkscape"
   version="1.1"
   width="19.3375"
   height="12.475"
   id="svg2"
   xml:space="preserve"><metadata
     id="metadata8"><rdf:RDF><cc:Work
         rdf:about=""><dc:format>image/svg+xml</dc:format><dc:type
           rdf:resource="http://purl.org/dc/dcmitype/StillImage" /></cc:Work></rdf:RDF></metadata><defs
     id="defs6" /><g
     transform="matrix(1.25,0,0,-1.25,0,12.475)"
     id="g10"><g
       transform="scale(0.1,0.1)"
       id="g12"><path
         d="M 100.305,0.0195313 80.5273,46.6836 C 72.6641,31.2813 63.9727,15.2656 56.5195,0.0390625 56.4688,-0.0273438 52.9102,0.0195313 52.9102,0.0703125 41.5508,26.6211 29.7578,52.9727 18.332,79.4961 15.6641,85.9961 6.39063,96.3984 0.046875,96.3516 0.046875,97.1094 0.0117188,98.7852 0,99.7969 l 39.1445,0.0195 -0.0195,-3.3906 c -4.6094,-0.211 -12.543,-3.1602 -10.5039,-8.2266 5.5312,-11.914 25.082,-58.0703 30.3594,-69.8086 3.6797,7.2071 13.9726,26.4571 18.2109,34.5586 -3.3242,6.8203 -14.3008,32.2656 -17.5976,38.6758 -2.4688,4.1758 -8.6954,4.7031 -13.4961,4.7734 0,1.0782 0.0546,1.8829 0.0351,3.3477 l 34.4336,-0.0859 0,-3.1524 c -4.6641,-0.125 -9.0742,-1.8555 -7.082,-6.3086 4.6406,-9.5937 7.3164,-16.4453 11.5742,-25.332 1.3672,2.5976 8.3203,16.8867 11.6211,24.3906 2.0117,5.0195 -0.9844,6.9063 -9.375,7.125 0.1172,0.8242 0.0469,2.4805 0.1172,3.2578 10.6914,0.0469 26.8631,0.086 29.7191,0.1094 l 0.015,-3.2305 c -5.457,-0.1992 -11.093,-3.1172 -14.082,-7.6211 L 88.7891,59.1953 C 90.3516,55.2656 104.109,24.6875 105.559,21.2891 l 29.597,68.3164 c -2.082,5.5312 -8.808,6.7773 -11.445,6.8203 0.019,0.8945 0.019,2.2226 0.019,3.3437 l 30.899,-0.2461 0.059,-0.1328 -0.059,-2.9336 C 147.859,96.2539 143.652,92.6172 141.16,86.6641 134.973,72.7539 116.172,28.7109 103.621,0 c 0,-0.0078125 -3.301,0.0195313 -3.316,0.0195313"
         inkscape:connector-curvature="0"
         id="path14"
         style="fill:#ffffff;fill-opacity:1;fill-rule:nonzero;stroke:none" /></g></g></svg>