<?xml version="1.0" encoding="utf-8"?>
<!-- Generator: Adobe Illustrator 16.0.0, SVG Export Plug-In . SVG Version: 6.00 Build 0)  -->
<!DOCTYPE svg PUBLIC "-//W3C//DTD SVG 1.1//EN" "http://www.w3.org/Graphics/SVG/1.1/DTD/svg11.dtd">
<svg version="1.1" id="Layer_1" xmlns="http://www.w3.org/2000/svg" xmlns:xlink="http://www.w3.org/1999/xlink" x="0px" y="0px"
	 width="36px" height="36px" viewBox="0 0 36 36" enable-background="new 0 0 36 36" xml:space="preserve">
<path fill="#F98012" d="M8.248,8.859c3.408-1.256,6.618-0.879,9.761,0.891c2.659-1.558,5.528-1.938,8.554-1.399
	c3.762,0.669,6.379,3.161,6.896,6.923c0.238,1.733,0.248,3.551,0.021,5.285c-0.231,1.762-1.763,2.725-3.527,2.629
	c-1.741-0.09-3.035-1.25-3.262-3.012c-0.103-0.798-0.03-1.615-0.099-2.421c-0.125-1.491-1.118-2.451-2.487-2.464
	c-1.377-0.012-2.371,0.93-2.504,2.434c-0.074,0.804-0.009,1.623-0.104,2.423c-0.209,1.765-1.491,2.938-3.23,3.039
	c-1.822,0.104-3.273-0.947-3.624-2.754c-0.173-0.892-0.137-1.819-0.215-2.729c-0.13-1.524-1.077-2.433-2.49-2.41
	c-1.411,0.023-2.384,0.958-2.417,2.486c-0.052,2.426-0.012,4.854-0.021,7.281c-0.002,0.59,0.012,1.19-0.081,1.772
	c-0.302,1.907-1.735,3.185-3.504,3.183c-1.917-0.002-3.42-1.261-3.464-3.324c-0.11-5.121-0.142-10.247-0.009-15.365
	C2.514,8.535,5.239,7.426,8.248,8.859z"/>
</svg>
